<svg version="1.1" xmlns="http://www.w3.org/2000/svg" xmlns:xlink="http://www.w3.org/1999/xlink" x="0px" y="0px" width="30px" height="30px" viewBox="0 0 512 512" enable-background="new 0 0 512 512" xml:space="preserve"><path d="M242.558,201.858c0,40.854-25.817,68.543-63.435,75.984l-7.127-15.406 c17.42-6.566,28.469-22.28,28.469-38.115h-29.406v-68.16h71.499C242.558,156.161,242.558,177.919,242.558,201.858z M342.941,201.858	c0,40.854-25.815,68.543-63.435,75.984l-7.127-15.406c17.419-6.566,28.471-22.28,28.471-38.115h-29.407v-68.16h71.498 C342.941,156.161,342.941,177.919,342.941,201.858z M422,104.991v213.682H234.327l-79.826,53.43v-53.43H90V104.991H422 M462,64.991 H50v293.682h64.501v88.336l131.978-88.336H462V64.991L462,64.991z"/></svg>